<?xml version="1.0" encoding="UTF-8" standalone="no"?>
<!-- Created with Inkscape (http://www.inkscape.org/) -->

<svg
   width="184.08284mm"
   height="63.087097mm"
   viewBox="0 0 184.08284 63.087098"
   version="1.1"
   id="svg1"
   sodipodi:docname="logo.svg"
   inkscape:version="1.4.2 (f4327f4, 2025-05-13)"
   xmlns:inkscape="http://www.inkscape.org/namespaces/inkscape"
   xmlns:sodipodi="http://sodipodi.sourceforge.net/DTD/sodipodi-0.dtd"
   xmlns="http://www.w3.org/2000/svg"
   xmlns:svg="http://www.w3.org/2000/svg">
  <sodipodi:namedview
     id="namedview1"
     pagecolor="#ffffff"
     bordercolor="#000000"
     borderopacity="0.25"
     inkscape:showpageshadow="2"
     inkscape:pageopacity="0.0"
     inkscape:pagecheckerboard="0"
     inkscape:deskcolor="#d1d1d1"
     inkscape:document-units="mm"
     inkscape:zoom="1.7060821"
     inkscape:cx="344.35623"
     inkscape:cy="82.938565"
     inkscape:window-width="2560"
     inkscape:window-height="1369"
     inkscape:window-x="3832"
     inkscape:window-y="-8"
     inkscape:window-maximized="1"
     inkscape:current-layer="layer1" />
  <defs
     id="defs1" />
  <g
     id="layer1"
     transform="translate(-10.074552,-84.111437)">
    <g
       id="g3"
       transform="matrix(3.6578154,0,0,3.6578154,-141.57065,-309.83372)">
      <path
         id="path25"
         style="-inkscape-font-specification:'Century Gothic';display:inline;fill:#ff75fa"
         d="m 49.252767,108.43997 c -1.389192,0 -2.70853,0.35484 -3.904154,1.05059 -1.197041,0.6904 -2.160607,1.66529 -2.853573,2.88302 v 0.002 l -0.0021,0.002 c -0.687425,1.21985 -1.035079,2.56539 -1.035079,3.98632 0,2.12772 0.786798,4.02171 2.292884,5.52111 1.751697,1.91856 3.158657,2.44904 5.8236,2.51494 2.28277,0.0722 3.810904,-1.00297 5.354012,-2.52476 1.507263,-1.50726 1.52766,-3.0813 1.52766,-5.23671 0,-2.17208 -0.01944,-4.43009 -1.529727,-5.92695 -1.512373,-1.49893 -3.458466,-2.2717 -5.673556,-2.2717 z m 0.06253,2.88458 c 0.880888,0 1.695407,0.21941 2.490287,0.67593 0.794713,0.45641 1.382008,1.04105 1.808675,1.78904 l 0.0016,0.004 0.0021,0.002 c 0.430387,0.74005 0.644921,1.5565 0.644921,2.50372 0,0.95402 -0.21526,1.78419 -0.648539,2.54507 l -0.0021,0.002 v 0.002 c -0.428007,0.76089 -1.008169,1.34356 -1.785421,1.78542 h -0.0021 c -0.771017,0.44134 -1.591012,0.65836 -2.509407,0.65836 -1.379087,0 -2.48054,-0.4519 -3.461288,-1.42007 l -0.0016,-0.002 c -6.95e-4,-6.9e-4 -0.0014,-10e-4 -0.0021,-0.002 -0.969788,-0.97164 -1.425753,-2.08476 -1.425753,-3.50366 0,-0.96082 0.215132,-1.79676 0.648023,-2.55695 0.435056,-0.764 1.023837,-1.35387 1.805057,-1.80868 0.782796,-0.45574 1.577479,-0.67334 2.437578,-0.67334 z"
         sodipodi:nodetypes="cccccscscsscccccccscccccscccscccc" />
      <ellipse
         style="fill:#ff75fa;fill-opacity:1;stroke:#ff75fa;stroke-width:0.264583;stroke-opacity:1"
         id="path1"
         cx="53.619984"
         cy="120.61606"
         rx="1.6224293"
         ry="1.686054" />
    </g>
    <path
       style="font-size:19.9954px;font-family:Candara;-inkscape-font-specification:Candara;fill:#ff75fa;stroke:#ff75fa;stroke-width:6.09495"
       d="m 124.13537,126.59048 c 0,6.95205 -4.44027,10.42807 -13.32081,10.42807 -3.92839,0 -12.202655,-1.05107 -15.607265,-1.83676 l 3.7401,-4.92062 c 3.095095,1.19041 8.426845,2.11473 12.045725,2.11473 5.19024,0 7.78535,-1.47611 7.78535,-4.42833 0,-1.42852 -0.5833,-2.55945 -1.74991,-3.39273 -1.14281,-0.8571 -3.04748,-1.80945 -5.71403,-2.85701 -3.38079,-1.33327 -5.83306,-2.61893 -7.3568,-3.85694 -2.23799,-1.83326 -3.35699,-4.04745 -3.35699,-6.64256 0,-2.71414 1.02376,-5.03546 3.07129,-6.96397 2.04752,-1.95229 5.16643,-2.92845 9.35671,-2.92845 4.09505,0 7.38061,0.34531 9.85669,1.03568 l -1.10709,5.14264 c -2.57131,-1.02379 -5.54737,-1.53567 -8.92816,-1.53567 -4.57122,0 -6.85683,1.32138 -6.85683,3.96412 0,1.33327 0.51188,2.41657 1.53564,3.24986 1.02377,0.80947 3.02368,1.79752 5.99973,2.96414 3.21414,1.26184 5.59498,2.4999 7.14252,3.71411 2.30942,1.88088 3.46413,4.13078 3.46413,6.74969 z"
       id="text26"
       aria-label="s" />
    <path
       style="font-size:19.9954px;font-family:Candara;-inkscape-font-specification:Candara;fill:#ff75fa;stroke:#ff75fa;stroke-width:6.09495"
       d="m 162.16571,119.57476 q 0,7.82106 -4.46408,13.57077 -4.46408,5.74977 -12.21372,5.74977 -6.57113,0 -8.92817,-2.35702 h -0.28571 l -0.89281,1.39279 h -5.24975 q 0.46427,-12.32089 0.46427,-26.64163 0,-12.928006 -1.17852,-23.606087 l 7.0711,-0.357003 q -0.35711,6.142572 -0.35711,19.46338 h 0.28571 q 3.49984,-4.03552 11.10663,-4.03552 6.60685,0 10.60666,4.92837 4.03552,4.92832 4.03552,11.89228 z m -6.35685,0.85709 q 0,-5.39261 -2.82129,-9.10671 -2.82131,-3.71412 -7.78536,-3.71412 -6.42828,0 -9.21387,3.89269 0,12.7137 0.5714,20.60619 2.89273,2.42847 7.53537,2.42847 5.85688,0 8.78531,-4.10696 2.92844,-4.10696 2.92844,-9.99956 z"
       id="text26-4"
       aria-label="b" />
    <path
       style="font-size:19.9954px;font-family:Candara;-inkscape-font-specification:Candara;fill:#ff75fa;stroke:#ff75fa;stroke-width:6.09495"
       d="m 191.10992,94.439082 q 0,2.285585 -5.39261,14.570758 -6.17828,14.03504 -7.67822,19.7848 -2.46417,9.32099 -4.57122,11.85659 -2.85701,3.49983 -10.17809,3.49983 l -0.28572,-4.99975 q 4.46408,0 7.42822,-3.03559 2.96416,-3.03558 2.96416,-7.6068 0,-3.96407 -6.57113,-18.85625 -6.57113,-14.892182 -6.57113,-15.213588 h 7.39253 q 0,0.964232 4.49978,12.999408 4.4998,12.03515 4.4998,14.82073 h 0.3571 q 0,-2.32132 3.78554,-13.46365 3.82125,-11.142358 3.82125,-14.356488 z"
       id="text26-8"
       aria-label="y" />
    <g
       id="g2"
       transform="matrix(3.6578154,0,0,3.6578154,-153.41919,-309.17546)">
      <ellipse
         style="fill:#ff75fa;fill-opacity:1;stroke:#ff75fa;stroke-width:0.264583;stroke-opacity:1"
         id="path1-1"
         cx="66.180481"
         cy="120.29798"
         rx="1.6224293"
         ry="1.686054" />
      <path
         d="m 62.907405,111.76271 c -1.729261,0 -3.261935,0.67044 -4.402832,1.9358 -1.035007,1.1454 -1.576132,2.56297 -1.576132,4.11706 0,1.57395 0.573131,3.01512 1.65623,4.18734 l 0.0021,0.002 v 0.002 c 1.11132,1.1882 2.61567,1.80661 4.320667,1.80661 1.699598,0 3.199647,-0.61977 4.304645,-1.80868 1.089665,-1.17191 1.666049,-2.61432 1.666049,-4.18941 0,-1.55944 -0.540601,-2.98089 -1.576132,-4.12688 h -0.0021 c -1.140844,-1.25838 -2.66963,-1.92598 -4.392495,-1.92598 z m 0,2.82052 c 0.862752,0 1.531533,0.28637 2.169892,0.94516 h 0.0016 l 0.0021,0.002 c 0.640773,0.65603 0.931726,1.37376 0.931726,2.31252 0,0.59512 -0.138086,1.12334 -0.423746,1.63453 -0.285881,0.51157 -0.647189,0.87981 -1.119312,1.15238 -0.47478,0.26803 -0.979173,0.40049 -1.562177,0.40049 -0.583,0 -1.08585,-0.13246 -1.560629,-0.40049 -0.472123,-0.27257 -0.83343,-0.64081 -1.119311,-1.15238 -0.28566,-0.51119 -0.423747,-1.03941 -0.423747,-1.63453 0,-0.94019 0.290824,-1.65905 0.926042,-2.31459 0.637635,-0.65804 1.307664,-0.94517 2.177645,-0.94516 z"
         style="-inkscape-font-specification:'Century Gothic';display:inline;fill:#ff75fa"
         id="path1-4" />
    </g>
  </g>
</svg>
